<svg width="25" height="30" viewBox="0 0 25 30" fill="none" xmlns="http://www.w3.org/2000/svg">
<path d="M24.027 10.7375C23.9458 9.53843 23.4047 8.41457 22.5132 7.59356C21.6218 6.77256 20.4466 6.31579 19.2259 6.31579H18.9158C18.9158 4.64074 18.2398 3.03429 17.0366 1.84985C15.8334 0.665412 14.2016 0 12.5 0C10.7985 0 9.1666 0.665412 7.96341 1.84985C6.76023 3.03429 6.08429 4.64074 6.08429 6.31579H5.77425C4.55349 6.31579 3.37836 6.77256 2.48689 7.59356C1.59542 8.41456 1.05426 9.53842 0.97302 10.7375L0.0106603 24.948C-0.0331718 25.5952 0.0584721 26.2443 0.279914 26.8552C0.501356 27.4661 0.847877 28.0257 1.298 28.4993C1.74813 28.9729 2.29227 29.3505 2.8967 29.6087C3.50113 29.8668 4.15298 30 4.81184 30H20.1882C20.8471 30 21.4989 29.8668 22.1033 29.6087C22.7078 29.3505 23.2519 28.9729 23.702 28.4993C24.1521 28.0256 24.4986 27.4661 24.7201 26.8552C24.9415 26.2443 25.0332 25.5952 24.9893 24.948L24.027 10.7375ZM12.5 1.57895C13.7758 1.58035 14.9988 2.07986 15.9009 2.96788C16.803 3.85591 17.3104 5.05993 17.3118 6.31579H7.68822C7.68967 5.05994 8.19709 3.85593 9.09916 2.96791C10.0012 2.07988 11.2243 1.58037 12.5 1.57895ZM22.5308 27.4206C22.2319 27.7378 21.8693 27.9906 21.4661 28.1628C21.0629 28.335 20.6277 28.4229 20.1882 28.4211H4.81184C4.3726 28.4211 3.93803 28.3323 3.53506 28.1602C3.1321 27.9881 2.76934 27.7364 2.46926 27.4206C2.16917 27.1049 1.93817 26.7318 1.79055 26.3245C1.64294 25.9173 1.58186 25.4845 1.61111 25.0531L2.57347 10.8425C2.62954 10.0438 2.99089 9.29572 3.58478 8.74877C4.17867 8.20183 4.96099 7.89667 5.77425 7.89474H19.2259C20.0392 7.89666 20.8215 8.20181 21.4154 8.74876C22.0093 9.29571 22.3707 10.0438 22.4268 10.8425L23.3891 25.0531C23.4202 25.4847 23.36 25.918 23.2122 26.3255C23.0645 26.733 22.8324 27.1059 22.5308 27.4206Z" fill="black"/>
</svg>
