<svg width="21" height="21" viewBox="0 0 21 21" fill="none" xmlns="http://www.w3.org/2000/svg">
<path d="M20.6949 19.2288C20.7916 19.3247 20.8683 19.4387 20.9206 19.5644C20.973 19.6901 21 19.8249 21 19.961C21 20.0972 20.973 20.232 20.9206 20.3576C20.8683 20.4833 20.7916 20.5974 20.6949 20.6933C20.5985 20.7888 20.4842 20.8645 20.3586 20.9158C20.2329 20.9671 20.0984 20.9931 19.9627 20.9923C19.8269 20.9931 19.6924 20.9671 19.5667 20.9158C19.4411 20.8645 19.3268 20.7888 19.2304 20.6933L10.8458 12.2983L2.46118 20.6933C2.36482 20.7888 2.25053 20.8645 2.12488 20.9158C1.99923 20.9671 1.86468 20.9931 1.72895 20.9923C1.59322 20.9931 1.45867 20.9671 1.33302 20.9158C1.20737 20.8645 1.09308 20.7888 0.996713 20.6933C0.900049 20.5974 0.823325 20.4833 0.770966 20.3576C0.718607 20.232 0.69165 20.0972 0.69165 19.961C0.69165 19.8249 0.718607 19.6901 0.770966 19.5644C0.823325 19.4387 0.900049 19.3247 0.996713 19.2288L9.39164 10.8442L0.996713 2.45955C0.802512 2.26534 0.693411 2.00195 0.693411 1.72731C0.693411 1.45267 0.802512 1.18928 0.996713 0.995074C1.19091 0.800873 1.45431 0.691772 1.72895 0.691772C2.00359 0.691772 2.26698 0.800873 2.46118 0.995074L10.8458 9.39L19.2304 0.995074C19.3266 0.898915 19.4407 0.822639 19.5664 0.770598C19.692 0.718557 19.8267 0.691772 19.9627 0.691772C20.0986 0.691772 20.2333 0.718557 20.3589 0.770598C20.4846 0.822639 20.5987 0.898915 20.6949 0.995074C20.791 1.09123 20.8673 1.20539 20.9194 1.33103C20.9714 1.45666 20.9982 1.59132 20.9982 1.72731C20.9982 1.8633 20.9714 1.99796 20.9194 2.12359C20.8673 2.24923 20.791 2.36339 20.6949 2.45955L12.3 10.8442L20.6949 19.2288Z" fill="black"/>
</svg>
